<?xml version="1.0" encoding="utf-8"?>
<!-- Generator: Adobe Illustrator 26.2.1, SVG Export Plug-In . SVG Version: 6.00 Build 0)  -->
<svg version="1.1" xmlns="http://www.w3.org/2000/svg" xmlns:xlink="http://www.w3.org/1999/xlink" x="0px" y="0px"
	 viewBox="0 0 3000 2000" style="enable-background:new 0 0 3000 2000;" xml:space="preserve">
<style type="text/css">
	.st0{display:none;}
	.st1{display:inline;}
	.st2{opacity:0.43;fill:#FCF8F9;}
	.st3{opacity:0.43;fill:#EF7D5E;}
	.st4{fill:#EF7D5E;}
</style>
<g id="Capa_1" class="st0">
	<g class="st1">
		<path class="st2" d="M2004.7,769.8c3.4,43.7-28.7,77.3-83.3,92.8c-90.2,25.6-187.5-16.9-227.8-99.3
			c-41-83.9-16.1-182.5,62.9-238.5c65.2-46.1,183.8-55.4,272.5,53.6c46-23,92.5-46.1,138.9-69.3
			c-76.8-151.4-263.4-220.8-424.6-161.5c-160.4,59-265.3,242.4-228.3,397.9c35.8,150.7,126.6,249.8,278.3,282.8
			c140,30.4,256.9-18.2,348.7-126.4c14.5-17.1,27.9-40.8,29.2-62.2c3.9-60.9,2.5-122.3,0.3-183.3c-0.4-11.2-14-31.3-21.8-31.5
			c-106.3-2.1-212.7-1.4-319.2-1.4c0,51.5,0,96.5,0,146.3C1891.1,769.8,1948.1,769.8,2004.7,769.8z M2160.8,1259.6
			c-5.6-12.3-7.6-18.6-11-24c-89.4-138.7-269.5-195-421.4-131.2c-173.1,72.8-246.4,231.6-211.4,401.4
			c51.3,248.7,342.4,358.8,546.8,210c41.9-30.5,91.5-63.1,94.3-124.3c2.9-62.2,1.9-124.6-0.6-186.8c-0.5-11.5-16.2-31.8-25.2-32
			c-100.5-2.3-201-1.4-304-1.4c0,51.4,0,97.1,0,148c57,0,110.2,0,162.8,0c4,41.1-1.7,51.8-35.1,71.8c-58.6,35.1-153,31-205.7-8.8
			c-67.3-50.9-94.2-127.3-72.2-204.9c38.5-135.7,207.2-178.5,313.3-80.8c13.1,12,38.3,24.3,52.1,19.6
			C2082.7,1302.8,2118.9,1280.6,2160.8,1259.6z M1057.5,324.2c-200.3,4.7-354.7,146.1-357.1,353.9
			c-2.3,200.2,147.8,351.8,352.4,356.8c191.1,4.7,356.2-156.4,355.6-350.2C1407.7,475.9,1252.6,333,1057.5,324.2z M1059.4,1076.4
			c-196.5,4.5-354.1,144.9-354,355.9c0.1,189.3,144.7,348.3,350.1,347.3c197.8-1,349.7-142.7,351.1-351.9
			C1407.9,1237.2,1268.2,1086.2,1059.4,1076.4z M2966.2,1772.5c-73.9-191.5-143.5-376.2-216.3-559.6
			c-52.6-132.5-54.6-132.7-193.9-124.7c-16.2,0.9-39.5,17.4-45.6,32.3c-58.1,143-113.5,287.1-169.2,431.1
			c-27.7,71.5-54.5,143.3-84.1,221c48.5,0,88.9-2.9,128.7,0.8c42.6,3.9,67.3-9.8,73.8-53.3c5.9-39.1,29.9-50.6,68-48.5
			c51.9,2.9,104.4,3.7,156.2-0.2c45.4-3.4,72.4,8,82.6,56.6c3.5,16.8,24.5,40.9,39.5,42.4
			C2856.8,1775.8,2908.5,1772.5,2966.2,1772.5z M2977.5,1026.5c-6.7-21.1-10.9-37.3-16.9-52.9c-65.8-172.2-132.2-344.1-197.8-516.4
			c-46.6-122.5-46.1-120.9-180.8-123.3c-39.8-0.7-56.4,14.9-69.2,49c-48,128.6-98,256.4-147.2,384.6
			c-32.4,84.4-64.8,168.9-99.4,259.1c47.5,0,86.8-4,125,1c49.2,6.4,73.4-14.7,81.5-59.6c6.5-35.7,26.9-44.7,61.3-43
			c57.6,2.8,115.6,3.7,173-0.2c41-2.8,61.5,9.5,71.5,50.3c4.7,19.1,23.6,47.2,38.7,49C2868.7,1030.3,2921.2,1026.5,2977.5,1026.5z
			 M38.8,1091.9c14.9,23.6,26.2,41.8,37.8,59.6c63.8,98.2,128.9,195.7,190.7,295.1c13.2,21.2,20.2,49.2,21,74.4
			c2.6,81.6,1,163.4,1,246.9c56.7,0,106.3,0,161.8,0c0-86.4-1.5-170,1-253.5c0.7-23.6,8.1-49.8,20.6-69.7
			c61.3-98.2,125.6-194.5,188.3-291.8c11.9-18.5,21.7-38.4,36.2-64.4c-37.6,0-64.9,3.2-91.1-0.6c-64-9.4-105.9,11-134.6,72.5
			c-26.4,56.5-64.6,107.5-101.6,167.5c-26.8-41.5-55.5-72.3-68.6-108.7C256.2,1094.6,165.2,1068.6,38.8,1091.9z M695.2,337.4
			c-49.9,0-90.4,3.2-130.2-0.9c-42-4.4-64.2,14-84.5,48C421.6,483.6,359.4,580.8,299,679c-8.7,14.2-20.2,30.1-20.5,45.4
			c-1.9,98.1-1,196.2-1,296.2c56.9,0,108.4,0,163.2,0c0-86.8-1.1-169.9,0.8-253c0.5-20.5,6.8-43.5,17.7-60.7
			c64-101.9,130.3-202.3,195.6-303.4C667.4,384.2,678.9,364.3,695.2,337.4z M24.5,337.4C96,447.5,162.9,550.7,227.2,649.7
			c100.8-85.1,98-173.3,14.3-263.9c-7.9-8.5-10.9-21.8-19.2-29.6c-8.9-8.3-21.4-17.6-32.6-18C137.8,336.4,85.8,337.4,24.5,337.4z
			 M424.8,340.6c-48.1,0-85.8,0-129.9,0c24.2,38.4,44.7,70.9,68.1,107.9C385.2,409.8,403.2,378.3,424.8,340.6z"/>
		<path class="st3" d="M2004.7,769.8c-56.5,0-113.6,0-174,0c0-49.9,0-94.8,0-146.3c106.5,0,212.9-0.7,319.2,1.4
			c7.8,0.2,21.4,20.3,21.8,31.5c2.2,61.1,3.6,122.4-0.3,183.3c-1.4,21.4-14.8,45.1-29.2,62.2c-91.8,108.1-208.7,156.8-348.7,126.4
			c-151.8-33-242.5-132.1-278.3-282.8c-37-155.5,68-338.9,228.3-397.9c161.2-59.3,347.8,10.1,424.6,161.5
			c-46.5,23.2-92.9,46.4-138.9,69.3c-88.7-109-207.4-99.7-272.5-53.6c-79,55.9-104,154.5-62.9,238.5
			c40.3,82.5,137.7,124.9,227.8,99.3C1976,847.1,2008.1,813.5,2004.7,769.8z"/>
		<path class="st3" d="M2160.8,1259.6c-41.9,21-78,43.1-117.2,56.6c-13.8,4.7-39-7.5-52.1-19.6c-106-97.7-274.8-54.9-313.3,80.8
			c-22,77.6,4.9,154,72.2,204.9c52.7,39.8,147.1,43.8,205.7,8.8c33.4-20,39.2-30.8,35.1-71.8c-52.6,0-105.8,0-162.8,0
			c0-50.9,0-96.6,0-148c102.9,0,203.5-0.8,304,1.4c9,0.2,24.8,20.5,25.2,32c2.5,62.2,3.5,124.7,0.6,186.8
			c-2.9,61.2-52.4,93.8-94.3,124.3c-204.5,148.8-495.5,38.7-546.8-210c-35.1-169.8,38.3-328.6,211.4-401.4
			c151.8-63.9,332-7.5,421.4,131.2C2153.2,1241,2155.2,1247.4,2160.8,1259.6z"/>
		<path class="st3" d="M1057.5,324.2c195.1,8.9,350.2,151.7,350.8,360.5c0.6,193.8-164.4,354.9-355.6,350.2
			c-204.6-5-354.6-156.6-352.3-356.8C702.8,470.3,857.2,328.9,1057.5,324.2z M1053.4,867.9c105.5,0.4,192.7-84.9,192.7-188.4
			c0-103.7-92.2-194.2-195.5-192c-102.3,2.2-186.7,88.5-186.5,190.6C864.2,784.4,947.1,867.5,1053.4,867.9z"/>
		<path class="st3" d="M1059.4,1076.4c208.8,9.7,348.5,160.8,347.2,351.3c-1.4,209.2-153.3,350.9-351.1,351.9
			c-205.4,1-350-158-350.1-347.3C705.3,1221.4,862.9,1080.9,1059.4,1076.4z M1057.7,1613.9c104.3-0.4,188.2-82.7,188.3-184.6
			c0.1-103.8-90.4-192.7-194.6-191.3c-99.2,1.4-188.7,95.2-186.2,195.3C867.7,1534.6,952.8,1614.3,1057.7,1613.9z"/>
		<path class="st3" d="M2966.2,1772.5c-57.8,0-109.5,3.3-160.3-2c-15-1.6-36-25.6-39.5-42.4c-10.2-48.6-37.2-59.9-82.6-56.6
			c-51.8,3.8-104.3,3-156.2,0.2c-38.1-2.1-62.1,9.3-68,48.5c-6.5,43.5-31.2,57.2-73.8,53.3c-39.8-3.7-80.2-0.8-128.7-0.8
			c29.6-77.8,56.4-149.6,84.1-221c55.7-144,111.1-288.1,169.2-431.1c6.1-14.9,29.4-31.4,45.6-32.3c139.4-8.1,141.3-7.8,193.9,124.7
			C2822.7,1396.3,2892.4,1581,2966.2,1772.5z M2619.9,1309.2c-5.3-0.4-10.5-0.8-15.8-1.2c-25.8,70.6-51.5,141.2-79.4,217.7
			c61.8,0,113.6,0,172.9,0C2670.3,1449.4,2645.1,1379.3,2619.9,1309.2z"/>
		<path class="st3" d="M2977.5,1026.5c-56.3,0-108.9,3.8-160.2-2.3c-15.1-1.8-34-29.9-38.7-49c-10-40.9-30.5-53.1-71.5-50.3
			c-57.4,3.9-115.4,3.1-173,0.2c-34.4-1.7-54.8,7.4-61.3,43c-8.1,44.9-32.3,66-81.5,59.6c-38.2-5-77.6-1-125-1
			c34.6-90.3,67-174.7,99.4-259.1c49.2-128.1,99.2-256,147.2-384.6c12.7-34.1,29.4-49.7,69.2-49c134.7,2.4,134.2,0.8,180.8,123.3
			c65.5,172.3,131.9,344.2,197.8,516.4C2966.6,989.2,2970.9,1005.4,2977.5,1026.5z M2630.4,550.7c-4.1,0.1-8.3,0.3-12.4,0.4
			c-26.6,73.8-53.2,147.7-81.9,227.2c62.5,0,116.8,0,176.2,0C2684,699.8,2657.2,625.2,2630.4,550.7z"/>
		<path class="st3" d="M38.8,1091.9c126.4-23.3,217.4,2.7,262.2,127.3c13.1,36.4,41.8,67.2,68.6,108.7
			c37.1-60.1,75.3-111,101.6-167.5c28.7-61.5,70.6-81.9,134.6-72.5c26.2,3.8,53.4,0.6,91.1,0.6c-14.5,26-24.3,45.9-36.2,64.4
			c-62.7,97.3-127,193.6-188.3,291.8c-12.5,19.9-19.9,46.1-20.6,69.7c-2.4,83.5-1,167.1-1,253.5c-55.5,0-105.1,0-161.8,0
			c0-83.5,1.6-165.3-1-246.9c-0.8-25.2-7.8-53.3-21-74.4c-61.9-99.4-126.9-196.9-190.7-295.1C65,1133.6,53.8,1115.5,38.8,1091.9z"/>
		<path class="st3" d="M695.2,337.4c-16.3,26.8-27.8,46.8-40.3,66.1c-65.3,101.1-131.6,201.5-195.6,303.4
			c-10.9,17.3-17.2,40.2-17.7,60.7c-2,83.1-0.8,166.3-0.8,253c-54.8,0-106.3,0-163.2,0c0-100.1-0.9-198.2,1-296.2
			c0.3-15.3,11.8-31.3,20.5-45.4c60.4-98.2,122.5-195.4,181.5-294.4c20.3-34,42.4-52.4,84.5-48C604.8,340.7,645.3,337.4,695.2,337.4
			z"/>
		<path class="st3" d="M24.5,337.4c61.2,0,113.3-1,165.2,0.8c11.2,0.4,23.6,9.7,32.6,18c8.3,7.8,11.3,21.1,19.2,29.6
			c83.7,90.6,86.5,178.8-14.3,263.9C162.9,550.7,96,447.5,24.5,337.4z"/>
		<path class="st3" d="M424.8,340.6c-21.6,37.7-39.6,69.2-61.8,107.9c-23.4-37-43.9-69.6-68.1-107.9
			C339.1,340.6,376.7,340.6,424.8,340.6z"/>
	</g>
</g>
<g id="Capa_2">
	<path class="st4" d="M36.9,1090.7l226.5,348.7c5.5,6.4,15.3,30.7,17.8,41.3c3.2,13.3,4.1,21,4.4,38.6
		c-0.4,14.7,46.4-31.2,63.6-31.6c7.2-8,31-46.4,39.1-62.8c23.3-47.3-68.2-196.2-97.2-240.2c-0.2-0.3-8.4-12.6-11.5-14.6l-24.8-34.9
		c-11.1-19.4-40.7-40.9-40.7-40.9c-12.4-4.4-41.1-3.6-54.3-3.6H36.9z"/>
	<polygon class="st4" points="295,340.9 424.7,340.7 363.3,448.6 	"/>
	<path class="st4" d="M701.8,1087.4l-231.7,366.6c-13.3,21-20.5,45.3-20.7,70.2l-2.3,245.9h-164l2.3-267.7
		c0.2-24.6,7.2-48.7,20.2-69.6l175.7-282.1c24.3-39.1,67.1-62.9,113.2-63.1L701.8,1087.4z"/>
	<path class="st4" d="M864,678.7c-5.3,65.8,52.4,188.4,192,189.3c71.7,0.5,184.5-65.1,189.3-181.3c5.2-124.9-118.2-199.5-192-197.3
		c-76,2.2-168.4,36.9-188,173.3C857,721.1,746,825.9,718.4,797.1c-2.6-2.8-15.8-50.2-18.4-106.9c-6.4-136.3,82.6-377.8,382.7-364.9
		c186.2,8,331,178.4,324,373.3c-7.1,197.3-178.7,336-349.3,336c-266,0-375.7-244.4-341.3-336.3C731.2,657.8,869.3,613.6,864,678.7z"
		/>
	<path class="st4" d="M2017.1,564.7c-57.2-62-85-66.9-157.7-72.1c-78.3-5.6-196.6,85.2-184.6,207.6c9.9,101,103.4,163.4,179.6,170.7
		c14.8,1.4,92.5,3.6,132.4-46.2c1.8-2.2,17.7-18.6,18.2-48.4c0-2.5,0.6-6.5-1.5-6.5c-61.6,0-85.2,0.6-144.6,0.1
		c-2.2,0-28.4,0.8-28.4,0c0.1-1.7-1.5-88.5,0-146.2c0-0.3,0.9,0,2.7,0c116.8,0.3,230.2-2.9,316.4,2.4c25.7,1.6,21.7,60.6,23.4,132.8
		c1.5,63.4-6.1,106.5-33.2,143c-61,82-145.6,138.3-277.3,136.9c-159.1-1.7-257.3-112.9-268-125.3c-18.1-21.2-91.6-112.2-85.3-245.3
		c7.9-166.9,134.7-260.4,154.7-274.7c25.5-18.2,117.4-81.4,242.7-66.7c0,0,176,33.8,261.8,180.9c1.7,2.8-62.7,32.9-68.4,36
		c-7.1,3.8-60.9,29.8-68.8,33.7C2028,578.9,2031,579.7,2017.1,564.7z"/>
	<path class="st4" d="M2535.6,778.7c57.8-135.6,67.6-187.7,82.4-227.6c2.2-6.1,10.2-6.8,12.4-0.3c26.1,75.6,54.5,148.2,80.9,225
		c1.4,4.2-0.5,3.2-7.3,3.2c-18.4,0-49.5-1-86,0c-32,0.9-52.4-1.6-84.2-0.2c-52.1,2.2-70.8,211.5-54.9,169.1
		c12.7-33.8,72.9-22,155-21c46.5,0.6,99.6-5.6,119.4,3c33,14.3,13.6,49.4,43.6,79.1c12.8,12.7,10.1,14.2,31.1,15.7
		c33.1,2.3,74.3,3.6,98.7,2.4c58.1-3,53.7,5.9,47.4-11.3c-94.2-255.1-158.5-429.9-245.6-642.4c-18.6-45.3-106.7-37.3-106.7-37.3
		s-86.3-14-102.2,30.2C2396,708.4,2350,790.7,2271.8,1014.7c-5.2,14.9-14.1,13.6,25.9,11.1c30.1-1.9,52-3.7,83.7,0.4
		c16.2,2.1,38.7,5.6,61.8-6.2c17.7-9.1,23-27.8,40.9-79.6C2521.8,831,2535.6,778.7,2535.6,778.7z"/>
	<path class="st4" d="M2521.9,1526.1c57.8-135.6,67.6-187.7,82.4-227.6c2.2-6.1,10.2-6.8,12.4-0.3c26.1,75.6,54.5,148.2,80.9,225
		c1.4,4.2-0.5,3.2-7.3,3.2c-18.4,0-49.5-1-86,0c-32,0.9-52.4-1.6-84.2-0.2c-52.1,2.2-70.8,211.5-54.9,169.1
		c12.7-33.8,72.9-22,155-21c46.5,0.6,99.6-5.6,119.4,3c33,14.3,13.6,49.4,43.6,79.1c12.8,12.7,10.1,14.2,31.1,15.7
		c33.1,2.3,74.3,3.6,98.7,2.4c58.1-3,53.7,5.9,47.4-11.3c-94.2-255.1-158.5-429.9-245.6-642.4c-18.6-45.3-106.7-37.3-106.7-37.3
		s-86.3-14-102.2,30.2c-123.6,342.2-169.6,424.4-247.8,648.4c-5.2,14.9-14.1,13.6,25.9,11.1c30.1-1.9,52-3.7,83.7,0.4
		c16.2,2.1,38.7,5.6,61.8-6.2c17.7-9.1,23-27.8,40.9-79.6C2508.2,1578.5,2521.9,1526.1,2521.9,1526.1z"/>
	<path class="st4" d="M2006.7,1313.6c-57.2-62-85-66.9-157.7-72.1c-78.3-5.6-196.6,85.2-184.6,207.6
		c9.9,101,103.4,163.4,179.6,170.7c14.8,1.4,92.5,3.6,132.4-46.2c1.8-2.2,17.7-18.6,18.2-48.4c0-2.5,0.6-6.5-1.5-6.5
		c-61.6,0-85.2,0.6-144.6,0.1c-2.2,0-28.4,0.8-28.4,0c0.1-1.7-1.5-88.5,0-146.2c0-0.3,0.9,0,2.7,0c116.8,0.3,230.2-2.9,316.4,2.4
		c25.7,1.6,21.7,60.6,23.4,132.8c1.5,63.4-6.1,106.5-33.2,143c-61,82-145.6,138.3-277.3,136.9c-159.1-1.7-257.3-112.9-268-125.3
		c-18.1-21.2-91.6-112.2-85.3-245.3c7.9-166.9,134.7-260.4,154.7-274.7c25.5-18.2,117.4-81.4,242.7-66.7c0,0,176,33.8,261.8,180.9
		c1.7,2.8-62.7,32.9-68.4,36c-7.1,3.8-60.9,29.8-68.8,33.7C2017.6,1327.8,2020.6,1328.6,2006.7,1313.6z"/>
	<path class="st4" d="M873.7,1422.9c-5.3,65.8,52.4,188.4,192,189.3c71.7,0.5,184.5-65.1,189.3-181.3
		c5.2-124.9-118.2-199.5-192-197.3c-76,2.2-168.4,36.9-188,173.3c-8.4,58.4-119.4,163.2-146.9,134.4c-2.6-2.8-15.8-50.2-18.4-106.9
		c-6.4-136.3,82.6-377.8,382.7-364.9c186.2,8,331,178.4,324,373.3c-7.1,197.3-178.7,336-349.3,336c-266,0-375.7-244.4-341.3-336.3
		C740.8,1402.1,878.9,1357.9,873.7,1422.9z"/>
	<path class="st4" d="M23.6,336.5l198.1,304.7c6.8,12.3,5.6,7.6,34.5-19.1c7.2-8,23.3-29.6,31.4-46.1
		c23.3-47.3,19.3-101.5-9.8-145.5c-0.2-0.3-8.4-12.6-11.5-14.6L241.4,381c-11.1-19.4-40.7-40.9-40.7-40.9
		c-12.4-4.4-41.1-3.6-54.3-3.6H23.6z"/>
	<path class="st4" d="M694.8,337.7L463.1,704.3c-13.3,21-20.5,45.3-20.7,70.2l-2.3,245.9h-164l2.3-267.7
		c0.2-24.6,7.2-48.7,20.2-69.6l175.7-282.1c24.3-39.1,67.1-62.9,113.2-63.1"/>
</g>
</svg>
