<?xml version="1.0" encoding="utf-8"?>
<!-- Generator: Adobe Illustrator 26.2.1, SVG Export Plug-In . SVG Version: 6.00 Build 0)  -->
<svg version="1.1" id="Capa_1" xmlns="http://www.w3.org/2000/svg" xmlns:xlink="http://www.w3.org/1999/xlink" x="0px" y="0px"
	 viewBox="0 0 3000 2000" style="enable-background:new 0 0 3000 2000;" xml:space="preserve">
<style type="text/css">
	.st0{fill:#FCF8F9;}
	.st1{fill:#EF7D5E;}
</style>
<g>
	<path class="st0" d="M2004.68,769.82c3.43,43.65-28.66,77.3-83.28,92.78c-90.15,25.56-187.47-16.89-227.8-99.35
		c-41.04-83.93-16.08-182.54,62.95-238.46c65.16-46.11,183.81-55.41,272.52,53.58c45.99-22.95,92.46-46.14,138.93-69.32
		c-76.79-151.4-263.4-220.78-424.6-161.48c-160.36,59-265.31,242.38-228.35,397.93c35.81,150.67,126.59,249.82,278.33,282.8
		c139.97,30.42,256.91-18.24,348.71-126.37c14.48-17.06,27.86-40.75,29.24-62.18c3.92-60.9,2.5-122.26,0.33-183.34
		c-0.4-11.22-14.01-31.35-21.83-31.51c-106.32-2.11-212.69-1.42-319.19-1.42c0,51.53,0,96.45,0,146.34
		C1891.05,769.82,1948.14,769.82,2004.68,769.82z M2160.75,1259.63c-5.57-12.26-7.56-18.6-11.03-23.99
		c-89.4-138.69-269.54-195.04-421.38-131.17c-173.12,72.83-246.45,231.63-211.39,401.41c51.35,248.69,342.37,358.85,546.85,210
		c41.91-30.51,91.47-63.12,94.34-124.28c2.91-62.17,1.95-124.64-0.56-186.85c-0.46-11.48-16.18-31.81-25.22-32.02
		c-100.48-2.31-201.03-1.45-303.98-1.45c0,51.41,0,97.11,0,147.98c57.04,0,110.25,0,162.83,0c4.02,41.06-1.74,51.84-35.12,71.83
		c-58.57,35.07-153.03,31.03-205.67-8.79c-67.29-50.89-94.2-127.27-72.19-204.88c38.47-135.65,207.22-178.47,313.27-80.79
		c13.06,12.03,38.26,24.28,52.06,19.56C2082.71,1302.76,2118.9,1280.6,2160.75,1259.63z M1057.47,324.2
		c-200.27,4.68-354.68,146.07-357.06,353.88c-2.29,200.21,147.75,351.84,352.35,356.84c191.1,4.67,356.17-156.37,355.56-350.19
		C1407.66,475.87,1252.61,333.05,1057.47,324.2z M1059.38,1076.45c-196.45,4.49-354.12,144.94-354,355.87
		c0.11,189.3,144.72,348.33,350.12,347.33c197.8-0.96,349.71-142.69,351.1-351.87C1407.87,1237.22,1268.19,1086.17,1059.38,1076.45z
		 M2966.22,1772.51c-73.86-191.52-143.49-376.22-216.34-559.63c-52.62-132.47-54.58-132.73-193.93-124.67
		c-16.17,0.93-39.5,17.39-45.57,32.32c-58.14,142.99-113.47,287.14-169.21,431.1c-27.67,71.47-54.52,143.26-84.07,221.03
		c48.49,0,88.89-2.87,128.69,0.78c42.59,3.91,67.31-9.82,73.84-53.31c5.88-39.13,29.9-50.58,67.96-48.48
		c51.95,2.86,104.39,3.66,156.21-0.17c45.45-3.36,72.42,7.96,82.62,56.55c3.53,16.84,24.52,40.88,39.53,42.45
		C2856.76,1775.8,2908.46,1772.51,2966.22,1772.51z M2977.52,1026.53c-6.67-21.09-10.91-37.3-16.86-52.86
		c-65.81-172.18-132.24-344.12-197.76-516.4c-46.6-122.53-46.12-120.89-180.8-123.27c-39.8-0.7-56.44,14.89-69.16,48.98
		c-47.99,128.6-98.01,256.43-147.24,384.56c-32.43,84.42-64.79,168.86-99.42,259.14c47.46,0,86.82-3.97,125.02,0.99
		c49.21,6.39,73.4-14.68,81.54-59.58c6.47-35.66,26.85-44.72,61.27-43.02c57.56,2.85,115.55,3.7,172.99-0.21
		c41.01-2.79,61.47,9.45,71.48,50.35c4.68,19.1,23.59,47.18,38.69,48.98C2868.66,1030.31,2921.22,1026.53,2977.52,1026.53z
		 M38.82,1091.89c14.94,23.62,26.15,41.75,37.76,59.61c63.81,98.21,128.85,195.67,190.71,295.09
		c13.16,21.15,20.16,49.24,20.96,74.42c2.58,81.63,0.97,163.39,0.97,246.93c56.72,0,106.26,0,161.77,0
		c0-86.41-1.49-170.01,0.95-253.49c0.69-23.57,8.15-49.77,20.6-69.69c61.33-98.16,125.57-194.49,188.3-291.78
		c11.93-18.51,21.68-38.42,36.21-64.42c-37.64,0-64.87,3.21-91.07-0.64c-63.99-9.41-105.93,10.98-134.62,72.5
		c-26.35,56.5-64.56,107.46-101.65,167.51c-26.81-41.5-55.53-72.29-68.63-108.72C256.25,1094.6,165.24,1068.58,38.82,1091.89z
		 M695.2,337.44c-49.92,0-90.44,3.23-130.2-0.89c-42.01-4.35-64.18,14.02-84.45,48.04c-58.99,99.05-121.14,196.2-181.5,294.43
		c-8.71,14.18-20.19,30.13-20.48,45.44c-1.86,98.06-0.95,196.17-0.95,296.25c56.85,0,108.42,0,163.18,0
		c0-86.76-1.15-169.93,0.81-253.03c0.48-20.52,6.84-43.46,17.71-60.74c64.05-101.87,130.31-202.34,195.61-303.42
		C667.41,384.2,678.9,364.26,695.2,337.44z M24.54,337.4c71.43,110.08,138.4,213.27,202.68,312.32
		c100.81-85.07,97.97-173.28,14.28-263.92c-7.87-8.53-10.87-21.83-19.21-29.59c-8.94-8.32-21.36-17.57-32.56-17.98
		C137.8,336.35,85.77,337.4,24.54,337.4z M424.83,340.6c-48.1,0-85.77,0-129.87,0c24.2,38.36,44.74,70.92,68.09,107.93
		C385.2,409.82,403.25,378.29,424.83,340.6z"/>
	<path class="st1" d="M2004.68,769.82c-56.53,0-113.63,0-174.03,0c0-49.89,0-94.82,0-146.34c106.5,0,212.88-0.69,319.19,1.42
		c7.83,0.16,21.43,20.29,21.83,31.51c2.17,61.08,3.59,122.44-0.33,183.34c-1.38,21.43-14.76,45.12-29.24,62.18
		c-91.8,108.14-208.73,156.79-348.71,126.37c-151.75-32.98-242.53-132.13-278.33-282.8c-36.97-155.55,67.98-338.93,228.35-397.93
		c161.2-59.31,347.8,10.07,424.6,161.48c-46.46,23.18-92.94,46.38-138.93,69.32c-88.72-108.99-207.36-99.7-272.52-53.58
		c-79.03,55.93-104,154.53-62.95,238.46c40.33,82.46,137.65,124.91,227.8,99.35C1976.02,847.12,2008.11,813.47,2004.68,769.82z"/>
	<path class="st1" d="M2160.75,1259.63c-41.86,20.97-78.04,43.14-117.22,56.56c-13.8,4.73-39-7.52-52.06-19.56
		c-106.04-97.68-274.8-54.86-313.27,80.79c-22.01,77.6,4.91,153.98,72.19,204.88c52.65,39.82,147.1,43.85,205.67,8.79
		c33.38-19.99,39.15-30.77,35.12-71.83c-52.58,0-105.79,0-162.83,0c0-50.87,0-96.57,0-147.98c102.95,0,203.5-0.85,303.98,1.45
		c9.04,0.21,24.76,20.54,25.22,32.02c2.51,62.21,3.47,124.68,0.56,186.85c-2.87,61.17-52.43,93.77-94.34,124.28
		c-204.47,148.85-495.5,38.69-546.85-210c-35.06-169.77,38.27-328.58,211.39-401.41c151.84-63.87,331.98-7.52,421.38,131.17
		C2153.19,1241.02,2155.18,1247.37,2160.75,1259.63z"/>
	<path class="st1" d="M1057.47,324.2c195.14,8.85,350.19,151.67,350.85,360.53c0.61,193.82-164.45,354.86-355.56,350.19
		c-204.6-5-354.64-156.63-352.35-356.84C702.79,470.27,857.2,328.88,1057.47,324.2z M1053.38,867.87
		c105.47,0.39,192.66-84.87,192.66-188.4c0-103.69-92.19-194.24-195.46-191.97c-102.27,2.25-186.66,88.49-186.51,190.59
		C864.23,784.44,947.07,867.48,1053.38,867.87z"/>
	<path class="st1" d="M1059.38,1076.45c208.82,9.73,348.49,160.77,347.22,351.34c-1.4,209.18-153.31,350.91-351.1,351.87
		c-205.4,0.99-350.01-158.03-350.12-347.33C705.26,1221.39,862.92,1080.94,1059.38,1076.45z M1057.67,1613.94
		c104.29-0.39,188.23-82.67,188.29-184.56c0.06-103.82-90.39-192.71-194.62-191.27c-99.21,1.37-188.69,95.25-186.18,195.35
		C867.69,1534.58,952.76,1614.33,1057.67,1613.94z"/>
	<path class="st1" d="M2966.22,1772.51c-57.76,0-109.46,3.29-160.27-2.03c-15.02-1.57-36-25.62-39.53-42.45
		c-10.2-48.6-37.17-59.92-82.62-56.55c-51.82,3.84-104.26,3.03-156.21,0.17c-38.06-2.09-62.08,9.35-67.96,48.48
		c-6.53,43.48-31.24,57.21-73.84,53.31c-39.8-3.65-80.2-0.78-128.69-0.78c29.55-77.77,56.4-149.56,84.07-221.03
		c55.74-143.97,111.07-288.11,169.21-431.1c6.07-14.93,29.4-31.39,45.57-32.32c139.35-8.05,141.31-7.8,193.93,124.67
		C2822.74,1396.29,2892.37,1580.99,2966.22,1772.51z M2619.95,1309.21c-5.27-0.4-10.53-0.79-15.8-1.19
		c-25.75,70.61-51.49,141.23-79.36,217.67c61.75,0,113.6,0,172.91,0C2670.29,1449.39,2645.12,1379.3,2619.95,1309.21z"/>
	<path class="st1" d="M2977.52,1026.53c-56.3,0-108.86,3.78-160.25-2.34c-15.1-1.8-34.01-29.88-38.69-48.98
		c-10.01-40.9-30.47-53.14-71.48-50.35c-57.43,3.9-115.43,3.06-172.99,0.21c-34.42-1.71-54.8,7.36-61.27,43.02
		c-8.15,44.91-32.33,65.98-81.54,59.58c-38.2-4.96-77.56-0.99-125.02-0.99c34.63-90.28,66.99-174.72,99.42-259.14
		c49.22-128.13,99.25-255.97,147.24-384.56c12.72-34.09,29.35-49.69,69.16-48.98c134.68,2.38,134.21,0.75,180.8,123.27
		c65.52,172.29,131.95,344.23,197.76,516.4C2966.61,989.23,2970.85,1005.44,2977.52,1026.53z M2630.37,550.67
		c-4.15,0.14-8.3,0.27-12.45,0.41c-26.62,73.83-53.24,147.66-81.9,227.15c62.46,0,116.75,0,176.25,0
		C2684.04,699.8,2657.21,625.24,2630.37,550.67z"/>
	<path class="st1" d="M38.82,1091.89c126.43-23.31,217.43,2.71,262.25,127.32c13.1,36.43,41.82,67.22,68.63,108.72
		c37.09-60.05,75.31-111.01,101.65-167.51c28.69-61.52,70.62-81.91,134.62-72.5c26.19,3.85,53.42,0.64,91.07,0.64
		c-14.52,26-24.27,45.92-36.21,64.42c-62.73,97.29-126.97,193.62-188.3,291.78c-12.45,19.93-19.91,46.12-20.6,69.69
		c-2.44,83.49-0.95,167.09-0.95,253.49c-55.5,0-105.05,0-161.77,0c0-83.54,1.62-165.3-0.97-246.93c-0.8-25.18-7.8-53.27-20.96-74.42
		c-61.86-99.43-126.9-196.88-190.71-295.09C64.97,1133.64,53.76,1115.51,38.82,1091.89z"/>
	<path class="st1" d="M695.2,337.44c-16.3,26.82-27.79,46.77-40.27,66.08c-65.3,101.08-131.57,201.55-195.61,303.42
		c-10.87,17.29-17.22,40.23-17.71,60.74c-1.96,83.1-0.81,166.28-0.81,253.03c-54.76,0-106.33,0-163.18,0
		c0-100.07-0.91-198.19,0.95-296.25c0.29-15.32,11.77-31.27,20.48-45.44c60.36-98.24,122.52-195.39,181.5-294.43
		c20.26-34.02,42.44-52.39,84.45-48.04C604.76,340.67,645.28,337.44,695.2,337.44z"/>
	<path class="st1" d="M24.54,337.4c61.23,0,113.26-1.05,165.19,0.83c11.2,0.41,23.62,9.66,32.56,17.98
		c8.34,7.76,11.34,21.06,19.21,29.59c83.68,90.64,86.53,178.84-14.28,263.92C162.94,550.67,95.97,447.48,24.54,337.4z"/>
	<path class="st1" d="M424.83,340.6c-21.58,37.69-39.63,69.23-61.78,107.93c-23.35-37.01-43.89-69.56-68.09-107.93
		C339.06,340.6,376.73,340.6,424.83,340.6z"/>
</g>
</svg>
